<svg xmlns="http://www.w3.org/2000/svg" viewBox="130 130 240 240" fill="none">
  <g stroke="#F4F1EE" stroke-width="8" fill="none" stroke-linecap="square" stroke-linejoin="miter">
    <path d="M 160 210 L 160 160 L 210 160"/>
    <path d="M 290 160 L 340 160 L 340 210"/>
    <path d="M 340 290 L 340 340 L 290 340"/>
    <path d="M 210 340 L 160 340 L 160 290"/>
  </g>
  <g>
    <line x1="170" y1="248.8" x2="170" y2="251.2" stroke="#7C3AED" stroke-width="4.8" stroke-linecap="round"/>
    <line x1="178" y1="246.6" x2="178" y2="253.4" stroke="#7C3AED" stroke-width="4.8" stroke-linecap="round"/>
    <line x1="186" y1="243.8" x2="186" y2="256.2" stroke="#7C3AED" stroke-width="4.8" stroke-linecap="round"/>
    <line x1="194" y1="240.3" x2="194" y2="259.7" stroke="#7C3AED" stroke-width="4.8" stroke-linecap="round"/>
    <line x1="194" y1="248.0" x2="194" y2="252.0" stroke="#8B5CF6" stroke-width="4.8" stroke-linecap="round"/>
    <line x1="202" y1="236.1" x2="202" y2="263.9" stroke="#7C3AED" stroke-width="4.8" stroke-linecap="round"/>
    <line x1="202" y1="245.4" x2="202" y2="254.6" stroke="#8B5CF6" stroke-width="4.8" stroke-linecap="round"/>
    <line x1="210" y1="230.8" x2="210" y2="269.2" stroke="#7C3AED" stroke-width="4.8" stroke-linecap="round"/>
    <line x1="210" y1="242.0" x2="210" y2="258.0" stroke="#8B5CF6" stroke-width="4.8" stroke-linecap="round"/>
    <line x1="210" y1="249.2" x2="210" y2="250.8" stroke="#A78BFA" stroke-width="4.8" stroke-linecap="round"/>
    <line x1="218" y1="224.3" x2="218" y2="275.7" stroke="#7C3AED" stroke-width="4.8" stroke-linecap="round"/>
    <line x1="218" y1="237.5" x2="218" y2="262.5" stroke="#8B5CF6" stroke-width="4.8" stroke-linecap="round"/>
    <line x1="218" y1="247.2" x2="218" y2="252.8" stroke="#A78BFA" stroke-width="4.8" stroke-linecap="round"/>
    <line x1="226" y1="216.1" x2="226" y2="283.9" stroke="#7C3AED" stroke-width="4.8" stroke-linecap="round"/>
    <line x1="226" y1="231.3" x2="226" y2="268.7" stroke="#8B5CF6" stroke-width="4.8" stroke-linecap="round"/>
    <line x1="226" y1="243.8" x2="226" y2="256.2" stroke="#A78BFA" stroke-width="4.8" stroke-linecap="round"/>
    <line x1="234" y1="205.4" x2="234" y2="294.6" stroke="#7C3AED" stroke-width="4.8" stroke-linecap="round"/>
    <line x1="234" y1="222.8" x2="234" y2="277.2" stroke="#8B5CF6" stroke-width="4.8" stroke-linecap="round"/>
    <line x1="234" y1="238.3" x2="234" y2="261.7" stroke="#A78BFA" stroke-width="4.8" stroke-linecap="round"/>
    <line x1="234" y1="248.1" x2="234" y2="251.9" stroke="#C4B5FD" stroke-width="4.8" stroke-linecap="round"/>
    <line x1="242" y1="190.3" x2="242" y2="309.7" stroke="#7C3AED" stroke-width="4.8" stroke-linecap="round"/>
    <line x1="242" y1="210.1" x2="242" y2="289.9" stroke="#8B5CF6" stroke-width="4.8" stroke-linecap="round"/>
    <line x1="242" y1="229.1" x2="242" y2="270.9" stroke="#A78BFA" stroke-width="4.8" stroke-linecap="round"/>
    <line x1="242" y1="243.5" x2="242" y2="256.5" stroke="#C4B5FD" stroke-width="4.8" stroke-linecap="round"/>
    <line x1="250" y1="165.0" x2="250" y2="335.0" stroke="#7C3AED" stroke-width="4.8" stroke-linecap="round"/>
    <line x1="250" y1="185.0" x2="250" y2="315.0" stroke="#8B5CF6" stroke-width="4.8" stroke-linecap="round"/>
    <line x1="250" y1="205.0" x2="250" y2="295.0" stroke="#A78BFA" stroke-width="4.8" stroke-linecap="round"/>
    <line x1="250" y1="225.0" x2="250" y2="275.0" stroke="#C4B5FD" stroke-width="4.8" stroke-linecap="round"/>
    <line x1="258" y1="190.3" x2="258" y2="309.7" stroke="#7C3AED" stroke-width="4.8" stroke-linecap="round"/>
    <line x1="258" y1="210.1" x2="258" y2="289.9" stroke="#8B5CF6" stroke-width="4.8" stroke-linecap="round"/>
    <line x1="258" y1="229.1" x2="258" y2="270.9" stroke="#A78BFA" stroke-width="4.8" stroke-linecap="round"/>
    <line x1="258" y1="243.5" x2="258" y2="256.5" stroke="#C4B5FD" stroke-width="4.8" stroke-linecap="round"/>
    <line x1="266" y1="205.4" x2="266" y2="294.6" stroke="#7C3AED" stroke-width="4.8" stroke-linecap="round"/>
    <line x1="266" y1="222.8" x2="266" y2="277.2" stroke="#8B5CF6" stroke-width="4.8" stroke-linecap="round"/>
    <line x1="266" y1="238.3" x2="266" y2="261.7" stroke="#A78BFA" stroke-width="4.8" stroke-linecap="round"/>
    <line x1="266" y1="248.1" x2="266" y2="251.9" stroke="#C4B5FD" stroke-width="4.8" stroke-linecap="round"/>
    <line x1="274" y1="216.1" x2="274" y2="283.9" stroke="#7C3AED" stroke-width="4.8" stroke-linecap="round"/>
    <line x1="274" y1="231.3" x2="274" y2="268.7" stroke="#8B5CF6" stroke-width="4.8" stroke-linecap="round"/>
    <line x1="274" y1="243.8" x2="274" y2="256.2" stroke="#A78BFA" stroke-width="4.8" stroke-linecap="round"/>
    <line x1="282" y1="224.3" x2="282" y2="275.7" stroke="#7C3AED" stroke-width="4.8" stroke-linecap="round"/>
    <line x1="282" y1="237.5" x2="282" y2="262.5" stroke="#8B5CF6" stroke-width="4.8" stroke-linecap="round"/>
    <line x1="282" y1="247.2" x2="282" y2="252.8" stroke="#A78BFA" stroke-width="4.8" stroke-linecap="round"/>
    <line x1="290" y1="230.8" x2="290" y2="269.2" stroke="#7C3AED" stroke-width="4.8" stroke-linecap="round"/>
    <line x1="290" y1="242.0" x2="290" y2="258.0" stroke="#8B5CF6" stroke-width="4.8" stroke-linecap="round"/>
    <line x1="290" y1="249.2" x2="290" y2="250.8" stroke="#A78BFA" stroke-width="4.8" stroke-linecap="round"/>
    <line x1="298" y1="236.1" x2="298" y2="263.9" stroke="#7C3AED" stroke-width="4.8" stroke-linecap="round"/>
    <line x1="298" y1="245.4" x2="298" y2="254.6" stroke="#8B5CF6" stroke-width="4.8" stroke-linecap="round"/>
    <line x1="306" y1="240.3" x2="306" y2="259.7" stroke="#7C3AED" stroke-width="4.8" stroke-linecap="round"/>
    <line x1="306" y1="248.0" x2="306" y2="252.0" stroke="#8B5CF6" stroke-width="4.8" stroke-linecap="round"/>
    <line x1="314" y1="243.8" x2="314" y2="256.2" stroke="#7C3AED" stroke-width="4.8" stroke-linecap="round"/>
    <line x1="322" y1="246.6" x2="322" y2="253.4" stroke="#7C3AED" stroke-width="4.8" stroke-linecap="round"/>
    <line x1="330" y1="248.8" x2="330" y2="251.2" stroke="#7C3AED" stroke-width="4.8" stroke-linecap="round"/>
  </g>
</svg>