<svg xmlns="http://www.w3.org/2000/svg" width="1200" height="630" viewBox="0 0 1200 630" fill="none">
  <style>
    @import url("https://fonts.googleapis.com/css2?family=DM+Serif+Display:ital@1&amp;family=Bricolage+Grotesque:wght@600;700;800&amp;family=Plus+Jakarta+Sans:wght@400;500;600&amp;display=swap");
    .brand { font-family: "Bricolage Grotesque", Arial, sans-serif; }
    .display { font-family: "DM Serif Display", Georgia, serif; font-style: italic; }
    .body { font-family: "Plus Jakarta Sans", Arial, sans-serif; }
    .mono { font-family: ui-monospace, SFMono-Regular, Menlo, monospace; }
  </style>

  <defs>
    <radialGradient id="violet-a" cx="0" cy="0" r="1" gradientUnits="userSpaceOnUse" gradientTransform="translate(120 78) rotate(39) scale(740 470)">
      <stop stop-color="#7C3AED" stop-opacity="0.58"/>
      <stop offset="0.48" stop-color="#4C1D95" stop-opacity="0.32"/>
      <stop offset="1" stop-color="#0A0909" stop-opacity="0"/>
    </radialGradient>
    <radialGradient id="violet-b" cx="0" cy="0" r="1" gradientUnits="userSpaceOnUse" gradientTransform="translate(915 520) rotate(172) scale(570 320)">
      <stop stop-color="#A78BFA" stop-opacity="0.26"/>
      <stop offset="0.56" stop-color="#3B0764" stop-opacity="0.20"/>
      <stop offset="1" stop-color="#0A0909" stop-opacity="0"/>
    </radialGradient>
    <linearGradient id="card" x1="644" y1="128" x2="1088" y2="510" gradientUnits="userSpaceOnUse">
      <stop stop-color="#1B1528" stop-opacity="0.92"/>
      <stop offset="1" stop-color="#0E0B14" stop-opacity="0.96"/>
    </linearGradient>
    <pattern id="dots" width="34" height="34" patternUnits="userSpaceOnUse">
      <circle cx="3" cy="3" r="1.5" fill="#A78BFA" opacity="0.16"/>
    </pattern>
    <filter id="soft-shadow" x="-20%" y="-20%" width="140%" height="140%">
      <feDropShadow dx="0" dy="26" stdDeviation="34" flood-color="#000000" flood-opacity="0.42"/>
    </filter>
    <filter id="violet-glow" x="-40%" y="-40%" width="180%" height="180%">
      <feDropShadow dx="0" dy="0" stdDeviation="18" flood-color="#A78BFA" flood-opacity="0.48"/>
    </filter>
  </defs>

  <rect width="1200" height="630" fill="#0A0909"/>
  <rect width="1200" height="630" fill="url(#violet-a)"/>
  <rect width="1200" height="630" fill="url(#violet-b)"/>
  <rect width="1200" height="630" fill="url(#dots)" opacity="0.7"/>

  <path d="M-72 497C98 417 240 420 390 484C553 553 686 565 842 482C973 412 1093 386 1264 420" stroke="#A78BFA" stroke-width="2" opacity="0.22"/>
  <path d="M-72 525C98 445 240 448 390 512C553 581 686 593 842 510C973 440 1093 414 1264 448" stroke="#7C3AED" stroke-width="2" opacity="0.22"/>

  <g transform="translate(86 54)">
    <image href="/favicon.svg" x="0" y="0" width="86" height="86"/>
    <text class="brand" x="108" y="60" fill="#F4F1EE" font-size="58" font-weight="800" letter-spacing="-1.5">clypt</text>
  </g>

  <g transform="translate(88 214)">
    <text class="display" x="0" y="0" fill="#FFFFFF" font-size="70" letter-spacing="-1.1">
      <tspan fill="#A78BFA" filter="url(#violet-glow)">Break</tspan><tspan> the video.</tspan>
    </text>
    <text class="display" x="0" y="80" fill="#FFFFFF" font-size="70" letter-spacing="-1.1">
      <tspan>Keep the </tspan><tspan fill="#A78BFA" filter="url(#violet-glow)">gems.</tspan>
    </text>
    <text class="body" x="2" y="136" fill="#D9D1E8" opacity="0.78" font-size="22" font-weight="500">
      Clypt maps long-form video into
    </text>
    <text class="body" x="2" y="169" fill="#D9D1E8" opacity="0.78" font-size="22" font-weight="500">
      semantic structure, then mines
    </text>
    <text class="body" x="2" y="202" fill="#D9D1E8" opacity="0.78" font-size="22" font-weight="500">
      the moments worth clipping.
    </text>

    <g transform="translate(0 250)">
      <rect width="430" height="68" rx="34" fill="#151019" stroke="#3C3346"/>
      <circle cx="40" cy="34" r="12" fill="#A78BFA" opacity="0.22"/>
      <path d="M35 34H45M40 29V39" stroke="#A78BFA" stroke-width="2.4" stroke-linecap="round"/>
      <text class="body" x="72" y="42" fill="#B8ADC8" font-size="19" font-weight="500">Paste a YouTube or podcast link</text>
    </g>
  </g>

  <g transform="translate(704 134) scale(0.84)" filter="url(#soft-shadow)" opacity="0.92">
    <rect x="0" y="0" width="486" height="392" rx="28" fill="url(#card)" stroke="#3A3345" stroke-width="1.5"/>
    <rect x="0" y="0" width="486" height="56" rx="28" fill="#1D1825"/>
    <path d="M0 56H486" stroke="#3A3345"/>
    <circle cx="30" cy="28" r="6" fill="#FB7185" opacity="0.78"/>
    <circle cx="52" cy="28" r="6" fill="#FBB249" opacity="0.78"/>
    <circle cx="74" cy="28" r="6" fill="#4ADE80" opacity="0.78"/>
    <text class="mono" x="172" y="34" fill="#8E849C" font-size="18">cortex_graph · 6 nodes</text>

    <rect x="0" y="56" width="486" height="336" fill="url(#dots)" opacity="0.82"/>

    <path d="M94 210C138 151 155 147 204 142" stroke="#8B5CF6" stroke-width="2.5" fill="none"/>
    <path d="M96 218C146 267 168 267 226 251" stroke="#F97316" stroke-width="2.5" fill="none"/>
    <path d="M264 158C311 162 322 176 350 216" stroke="#60A5FA" stroke-width="2.5" fill="none"/>
    <path d="M266 248C314 246 331 256 374 288" stroke="#4ADE80" stroke-width="2.5" fill="none"/>
    <path d="M244 148C244 186 244 207 244 232" stroke="#A78BFA" stroke-width="2.5" stroke-dasharray="8 8" fill="none"/>

    <g transform="translate(44 178)">
      <rect width="128" height="70" rx="14" fill="#171120" stroke="#A78BFA" stroke-width="2"/>
      <rect x="18" y="15" width="56" height="24" rx="5" fill="#2B2140" stroke="#A78BFA"/>
      <text class="mono" x="28" y="32" fill="#D8B4FE" font-size="13">claim</text>
      <text class="body" x="18" y="58" fill="#F4F1EE" font-size="15" font-weight="600">the hook</text>
      <circle cx="128" cy="35" r="6" fill="#A78BFA"/>
    </g>

    <g transform="translate(200 112)">
      <rect width="150" height="76" rx="14" fill="#101723" stroke="#60A5FA" stroke-width="2"/>
      <rect x="18" y="15" width="92" height="24" rx="5" fill="#152A44" stroke="#60A5FA"/>
      <text class="mono" x="28" y="32" fill="#93C5FD" font-size="13">explanation</text>
      <text class="body" x="18" y="61" fill="#F4F1EE" font-size="15" font-weight="600">why it matters</text>
      <circle cx="0" cy="38" r="6" fill="#60A5FA"/>
      <circle cx="150" cy="38" r="6" fill="#60A5FA"/>
    </g>

    <g transform="translate(190 222)">
      <rect width="154" height="76" rx="14" fill="#21130E" stroke="#FB923C" stroke-width="2"/>
      <rect x="18" y="15" width="104" height="24" rx="5" fill="#3C1E11" stroke="#FB923C"/>
      <text class="mono" x="28" y="32" fill="#FDBA74" font-size="13">setup_payoff</text>
      <text class="body" x="18" y="61" fill="#F4F1EE" font-size="15" font-weight="600">the reveal</text>
      <circle cx="0" cy="38" r="6" fill="#FB923C"/>
      <circle cx="154" cy="38" r="6" fill="#FB923C"/>
    </g>

    <g transform="translate(350 186)">
      <rect width="110" height="70" rx="14" fill="#20170F" stroke="#FBB249" stroke-width="2"/>
      <rect x="18" y="15" width="72" height="24" rx="5" fill="#3A2710" stroke="#FBB249"/>
      <text class="mono" x="28" y="32" fill="#FDE68A" font-size="13">anecdote</text>
      <text class="body" x="18" y="58" fill="#F4F1EE" font-size="15" font-weight="600">the story</text>
      <circle cx="0" cy="35" r="6" fill="#FBB249"/>
    </g>

    <g transform="translate(338 288)">
      <rect width="126" height="70" rx="14" fill="#0E2118" stroke="#4ADE80" stroke-width="2"/>
      <rect x="18" y="15" width="92" height="24" rx="5" fill="#123321" stroke="#4ADE80"/>
      <text class="mono" x="28" y="32" fill="#86EFAC" font-size="13">reaction</text>
      <text class="body" x="18" y="58" fill="#F4F1EE" font-size="15" font-weight="600">the spark</text>
      <circle cx="0" cy="35" r="6" fill="#4ADE80"/>
    </g>

    <g transform="translate(40 330)">
      <rect width="86" height="30" rx="8" fill="#2B2140"/>
      <text class="mono" x="18" y="20" fill="#D8B4FE" font-size="15">claim</text>
      <rect x="102" width="132" height="30" rx="8" fill="#152A44"/>
      <text class="mono" x="119" y="20" fill="#93C5FD" font-size="15">explanation</text>
      <rect x="250" width="138" height="30" rx="8" fill="#3C1E11"/>
      <text class="mono" x="267" y="20" fill="#FDBA74" font-size="15">setup_payoff</text>
    </g>
  </g>
</svg>
