<svg xmlns="http://www.w3.org/2000/svg" width="1200" height="630" viewBox="0 0 1200 630" fill="none">
  <rect width="1200" height="630" fill="#0A0909"/>
  <radialGradient id="hero-a" cx="0" cy="0" r="1" gradientUnits="userSpaceOnUse" gradientTransform="translate(290 160) rotate(44) scale(680 430)">
    <stop stop-color="#8B5CF6" stop-opacity="0.72"/>
    <stop offset="0.45" stop-color="#4C1D95" stop-opacity="0.38"/>
    <stop offset="1" stop-color="#0A0909" stop-opacity="0"/>
  </radialGradient>
  <radialGradient id="hero-b" cx="0" cy="0" r="1" gradientUnits="userSpaceOnUse" gradientTransform="translate(920 460) rotate(160) scale(520 310)">
    <stop stop-color="#A78BFA" stop-opacity="0.42"/>
    <stop offset="0.48" stop-color="#5B21B6" stop-opacity="0.22"/>
    <stop offset="1" stop-color="#0A0909" stop-opacity="0"/>
  </radialGradient>
  <rect width="1200" height="630" fill="url(#hero-a)"/>
  <rect width="1200" height="630" fill="url(#hero-b)"/>
  <g opacity="0.22">
    <path d="M0 504C171 431 268 427 421 489C582 554 706 564 869 480C1003 411 1098 397 1200 414" stroke="#A78BFA" stroke-width="2"/>
    <path d="M0 528C172 456 270 452 421 513C582 578 706 588 869 504C1003 435 1098 421 1200 438" stroke="#7C3AED" stroke-width="2"/>
  </g>
  <g transform="translate(98 142)">
    <g stroke="#F4F1EE" stroke-width="12" fill="none" stroke-linecap="square" stroke-linejoin="miter">
      <path d="M 160 210 L 160 160 L 210 160"/>
      <path d="M 290 160 L 340 160 L 340 210"/>
      <path d="M 340 290 L 340 340 L 290 340"/>
      <path d="M 210 340 L 160 340 L 160 290"/>
    </g>
    <g stroke-linecap="round" stroke-width="5.8">
      <line x1="170" y1="248" x2="170" y2="252" stroke="#7C3AED"/>
      <line x1="178" y1="246" x2="178" y2="254" stroke="#7C3AED"/>
      <line x1="186" y1="243" x2="186" y2="257" stroke="#7C3AED"/>
      <line x1="194" y1="239" x2="194" y2="261" stroke="#7C3AED"/>
      <line x1="202" y1="234" x2="202" y2="266" stroke="#8B5CF6"/>
      <line x1="210" y1="228" x2="210" y2="272" stroke="#8B5CF6"/>
      <line x1="218" y1="220" x2="218" y2="280" stroke="#8B5CF6"/>
      <line x1="226" y1="211" x2="226" y2="289" stroke="#A78BFA"/>
      <line x1="234" y1="199" x2="234" y2="301" stroke="#A78BFA"/>
      <line x1="242" y1="183" x2="242" y2="317" stroke="#C4B5FD"/>
      <line x1="250" y1="160" x2="250" y2="340" stroke="#7C3AED"/>
      <line x1="258" y1="183" x2="258" y2="317" stroke="#C4B5FD"/>
      <line x1="266" y1="199" x2="266" y2="301" stroke="#A78BFA"/>
      <line x1="274" y1="211" x2="274" y2="289" stroke="#A78BFA"/>
      <line x1="282" y1="220" x2="282" y2="280" stroke="#8B5CF6"/>
      <line x1="290" y1="228" x2="290" y2="272" stroke="#8B5CF6"/>
      <line x1="298" y1="234" x2="298" y2="266" stroke="#8B5CF6"/>
      <line x1="306" y1="239" x2="306" y2="261" stroke="#7C3AED"/>
      <line x1="314" y1="243" x2="314" y2="257" stroke="#7C3AED"/>
      <line x1="322" y1="246" x2="322" y2="254" stroke="#7C3AED"/>
      <line x1="330" y1="248" x2="330" y2="252" stroke="#7C3AED"/>
    </g>
  </g>
  <text x="508" y="254" fill="#F4F1EE" font-family="Arial, Helvetica, sans-serif" font-size="108" font-weight="700" letter-spacing="-3">clypt</text>
  <text x="514" y="334" fill="#DDD6FE" font-family="Arial, Helvetica, sans-serif" font-size="34" font-weight="600">Break the video. Keep the gems.</text>
  <text x="516" y="392" fill="#B8ADC8" font-family="Arial, Helvetica, sans-serif" font-size="27">AI video analysis for grounded, render-ready clips.</text>
</svg>
